<?xml version="1.0" encoding="UTF-8" standalone="no"?>
<!-- Created with Inkscape (http://www.inkscape.org/) -->

<svg
   xmlns:dc="http://purl.org/dc/elements/1.1/"
   xmlns:cc="http://creativecommons.org/ns#"
   xmlns:rdf="http://www.w3.org/1999/02/22-rdf-syntax-ns#"
   xmlns:svg="http://www.w3.org/2000/svg"
   xmlns="http://www.w3.org/2000/svg"
   xmlns:sodipodi="http://sodipodi.sourceforge.net/DTD/sodipodi-0.dtd"
   xmlns:inkscape="http://www.inkscape.org/namespaces/inkscape"
   version="1.1"
   width="128"
   height="128"
   id="svg3227"
   inkscape:version="0.92.4 (5da689c313, 2019-01-14)"
   sodipodi:docname="flip2.svg"
   inkscape:export-filename="c:\Users\fraxl\Documents\qt\FlashWords\flip.png"
   inkscape:export-xdpi="96"
   inkscape:export-ydpi="96">
  <sodipodi:namedview
     pagecolor="#ffffff"
     bordercolor="#666666"
     borderopacity="1"
     objecttolerance="10"
     gridtolerance="10"
     guidetolerance="10"
     inkscape:pageopacity="0"
     inkscape:pageshadow="2"
     inkscape:window-width="1920"
     inkscape:window-height="1057"
     id="namedview3729"
     showgrid="true"
     inkscape:zoom="3.6875"
     inkscape:cx="-14.75073"
     inkscape:cy="92.732366"
     inkscape:window-x="-8"
     inkscape:window-y="-8"
     inkscape:window-maximized="1"
     inkscape:current-layer="svg3227"
     inkscape:snap-grids="false">
    <inkscape:grid
       type="xygrid"
       id="grid3731"
       empspacing="5"
       visible="true"
       enabled="true"
       snapvisiblegridlinesonly="true" />
  </sodipodi:namedview>
  <defs
     id="defs3229">
    <inkscape:path-effect
       effect="spiro"
       id="path-effect3237"
       is_visible="true" />
  </defs>
  <metadata
     id="metadata3232">
    <rdf:RDF>
      <cc:Work
         rdf:about="">
        <dc:format>image/svg+xml</dc:format>
        <dc:type
           rdf:resource="http://purl.org/dc/dcmitype/StillImage" />
        <dc:title />
      </cc:Work>
    </rdf:RDF>
  </metadata>
  <g
     id="g4529"
     transform="matrix(4.4545455,0,0,4.4545455,-239.63636,-51)"
     style="stroke-width:4;stroke-miterlimit:4;stroke-dasharray:none">
    <path
       sodipodi:nodetypes="csc"
       inkscape:connector-curvature="0"
       id="path3737"
       d="M 5,17 C 5,14.5 5.4694676,12.03326 9.599576,8.5911017 13.237288,5.559322 21,5 25,9"
       style="color:#000000;display:inline;overflow:visible;visibility:visible;fill:none;stroke:#009bff;stroke-width:4;stroke-linecap:butt;stroke-linejoin:miter;stroke-miterlimit:4;stroke-dasharray:none;stroke-dashoffset:0;stroke-opacity:1;marker:none;enable-background:accumulate" />
    <path
       sodipodi:nodetypes="ccc"
       inkscape:connector-curvature="0"
       id="path4525"
       d="m 19,11 h 8 V 3"
       style="fill:none;fill-opacity:1;fill-rule:evenodd;stroke:#009bff;stroke-width:4;stroke-linecap:butt;stroke-linejoin:miter;stroke-miterlimit:4;stroke-dasharray:none;stroke-opacity:1" />
  </g>
  <path
     style="color:#000000;display:inline;overflow:visible;visibility:visible;fill:none;stroke:#009bff;stroke-width:17.81818199;stroke-linecap:butt;stroke-linejoin:miter;stroke-miterlimit:4;stroke-dasharray:none;stroke-dashoffset:0;stroke-opacity:1;marker:none;enable-background:accumulate"
     d="m -119.36365,24.727272 c 0,11.13636 -2.09126,22.124571 -20.48901,37.457818 -16.20435,13.5052 -50.7837,15.996719 -68.60189,-1.821457"
     id="path3737-4"
     inkscape:connector-curvature="0"
     sodipodi:nodetypes="csc" />
  <path
     style="fill:none;fill-opacity:1;fill-rule:evenodd;stroke:#009bff;stroke-width:17.81818199;stroke-linecap:butt;stroke-linejoin:miter;stroke-miterlimit:4;stroke-dasharray:none;stroke-opacity:1"
     d="m -181.72727,51.454543 h -35.63637 V 87.09091"
     id="path4525-6"
     inkscape:connector-curvature="0"
     sodipodi:nodetypes="ccc" />
  <path
     id="path970"
     d="m 32.619698,61.67595 a 4.4229846,4.9038872 0 0 0 -5.351811,3.726955 l -2.167263,9.513541 a 4.4229846,4.9038872 0 0 0 3.361468,5.786587 4.4229846,4.9038872 0 0 0 5.351812,-3.579838 l 2.167262,-9.513541 A 4.4229846,4.9038872 0 0 0 32.619698,61.67595 Z M 107.81043,98.553187 90.118497,20.090987 A 4.4229846,4.9038872 0 0 0 85.960892,16.364033 H 72.691938 a 4.4229846,4.9038872 0 0 0 -4.422984,4.903887 v 78.462197 a 4.4229846,4.9038872 0 0 0 4.422984,4.903893 h 30.960892 a 4.4229846,4.9038872 0 0 0 3.49415,-1.86348 4.4229846,4.9038872 0 0 0 0.92883,-4.217343 z M 77.114923,94.826228 V 26.171807 h 5.396041 l 15.48045,68.654421 z M 39.077251,33.135327 a 4.4229846,4.9038872 0 0 0 -5.396041,3.579838 l -2.123033,9.513541 a 4.4229846,4.9038872 0 0 0 3.228779,5.933703 h 1.061516 a 4.4229846,4.9038872 0 0 0 4.422989,-3.726954 l 2.123033,-9.513541 a 4.4229846,4.9038872 0 0 0 -3.317243,-5.786587 z m 4.909517,-6.96352 h 8.845969 a 4.4229846,4.9038872 0 0 0 0,-9.807774 h -8.845969 a 4.4229846,4.9038872 0 0 0 0,9.807774 z M 29.523604,94.826228 a 4.4547164,4.9390692 0 0 0 -8.845969,-1.176933 l -1.061512,4.903892 a 4.4229846,4.9038872 0 0 0 0.796133,4.217343 4.4229846,4.9038872 0 0 0 3.626852,1.86348 h 4.422984 a 4.454718,4.939071 0 0 0 1.061512,-9.807782 z M 55,33.576677 a 4.4229846,4.9038872 0 0 0 -4.422985,4.903887 v 9.807774 a 4.4229846,4.9038872 0 0 0 8.845969,0 V 38.480564 A 4.4229846,4.9038872 0 0 0 55,33.576677 Z M 55,63 a 4.4229846,4.9038872 0 0 0 -4.422985,4.903887 v 9.807775 a 4.4229846,4.9038872 0 0 0 8.845969,0 V 67.903887 A 4.4229846,4.9038872 0 0 0 55,63 Z m 0,29.423323 a 4.4229846,4.9038872 0 0 0 -3.803767,2.402905 h -5.042202 a 4.4229867,4.9038895 0 0 0 0,9.807782 H 55 a 4.4229846,4.9038872 0 0 0 4.422984,-4.903893 V 97.32721 A 4.4229846,4.9038872 0 0 0 55,92.423323 Z"
     inkscape:connector-curvature="0"
     style="fill:#009bff;fill-opacity:1;stroke-width:4.65723276" />
</svg>
