<?xml version="1.0" encoding="UTF-8" standalone="no"?>
<!-- Created with Inkscape (http://www.inkscape.org/) -->

<svg
   xmlns:dc="http://purl.org/dc/elements/1.1/"
   xmlns:cc="http://creativecommons.org/ns#"
   xmlns:rdf="http://www.w3.org/1999/02/22-rdf-syntax-ns#"
   xmlns:svg="http://www.w3.org/2000/svg"
   xmlns="http://www.w3.org/2000/svg"
   xmlns:sodipodi="http://sodipodi.sourceforge.net/DTD/sodipodi-0.dtd"
   xmlns:inkscape="http://www.inkscape.org/namespaces/inkscape"
   width="32"
   height="32"
   id="svg2"
   version="1.1"
   inkscape:version="0.92.4 (5da689c313, 2019-01-14)"
   inkscape:export-filename="C:\Users\fraxl\Documents\qt\glosquiz\info.png"
   inkscape:export-xdpi="96"
   inkscape:export-ydpi="96"
   sodipodi:docname="search.svg">
  <defs
     id="defs4" />
  <sodipodi:namedview
     id="base"
     pagecolor="#ffffff"
     bordercolor="#666666"
     borderopacity="1.0"
     inkscape:pageopacity="0.0"
     inkscape:pageshadow="2"
     inkscape:zoom="9.9419215"
     inkscape:cx="12.285212"
     inkscape:cy="18.128559"
     inkscape:document-units="px"
     inkscape:current-layer="layer1"
     showgrid="true"
     inkscape:window-width="1920"
     inkscape:window-height="1057"
     inkscape:window-x="1912"
     inkscape:window-y="-8"
     inkscape:window-maximized="1"
     inkscape:snap-center="true"
     inkscape:snap-page="true"
     inkscape:snap-grids="false">
    <inkscape:grid
       type="xygrid"
       id="grid55" />
  </sodipodi:namedview>
  <metadata
     id="metadata7">
    <rdf:RDF>
      <cc:Work
         rdf:about="">
        <dc:format>image/svg+xml</dc:format>
        <dc:type
           rdf:resource="http://purl.org/dc/dcmitype/StillImage" />
        <dc:title></dc:title>
      </cc:Work>
    </rdf:RDF>
  </metadata>
  <g
     inkscape:label="close"
     inkscape:groupmode="layer"
     id="layer1"
     transform="translate(0,-1020.3622)"
     style="display:inline">
    <g
       id="layer19"
       inkscape:label="bg"
       style="display:none"
       transform="matrix(2.5397123,0,0,2.5397123,-62.648765,370.39129)">
      <rect
         rx="9.0965891"
         style="fill:#000004;fill-opacity:1;fill-rule:nonzero;stroke:none"
         id="rect7248"
         width="266.73502"
         height="250.69881"
         x="-11.22532"
         y="60.1992"
         ry="9.0965891" />
    </g>
    <g
       inkscape:label="Layer 1"
       id="layer1-6"
       style="display:none"
       transform="matrix(2.5397123,0,0,2.5397123,-62.648765,370.39129)">
      <path
         style="fill:none;stroke:#000000;stroke-width:8;stroke-linejoin:miter;stroke-miterlimit:4;stroke-dasharray:none;stroke-opacity:1"
         d="M 27.214063,117.08322 V 224.05033 H 183.31823 v -89.24675 c 0,0 -22.61156,0.4331 -48.93603,0 -5.90599,-0.0972 -5.82083,-17.72036 -5.82083,-17.72036 z"
         id="rect7147"
         inkscape:connector-curvature="0"
         sodipodi:nodetypes="ccccscc" />
      <rect
         style="fill:none;stroke:#000000;stroke-width:6.68746471;stroke-linejoin:miter;stroke-miterlimit:4;stroke-dasharray:none;stroke-opacity:1"
         id="rect7147-3"
         width="128.4413"
         height="90.845543"
         x="237.51706"
         y="123.77151" />
      <path
         style="fill:none;stroke:#000000;stroke-width:8;stroke-linejoin:miter;stroke-miterlimit:4;stroke-dasharray:none;stroke-opacity:1"
         d="m 143.9072,99.312209 c -15.47034,0 -15.34583,17.771011 -15.34583,17.771011 H 27.247138 V 224.05033 H 183.35131 V 117.08322 c 0,0 0.91188,-17.999761 -15.34583,-17.771011 -6.61436,0.0931 -24.09828,0 -24.09828,0 z"
         id="rect7147-5"
         inkscape:connector-curvature="0"
         sodipodi:nodetypes="scccccss" />
    </g>
    <g
       id="layer17"
       inkscape:label="bottom folder"
       transform="matrix(2.5397123,0,0,2.5397123,-62.648765,370.39129)"
       style="display:none">
      <path
         style="fill:#009bff;fill-opacity:1;fill-rule:nonzero;stroke:none"
         d="M 34.410303,135.33938 H 185.22318 c 4.39737,0 8.22179,3.54932 7.9375,7.9375 l -5.29167,81.67837 c -0.2843,4.38818 -3.54013,7.9375 -7.9375,7.9375 H 39.70197 c -4.397375,0 -7.653205,-3.54932 -7.9375,-7.9375 l -5.291667,-81.67837 c -0.284295,-4.38818 3.540125,-7.9375 7.9375,-7.9375 z"
         id="rect7216"
         inkscape:connector-curvature="0"
         sodipodi:nodetypes="sssssssss" />
    </g>
    <g
       id="layer16"
       inkscape:label="top folder"
       transform="matrix(2.5397123,0,0,2.5397123,-62.648765,370.39129)"
       style="display:none" />
    <g
       id="layer18"
       inkscape:label="mag-lens"
       transform="matrix(2.5397123,0,0,2.5397123,-62.648765,370.39129)"
       style="display:inline">
      <path
         style="fill:#000000;fill-opacity:1;fill-rule:nonzero;stroke:none"
         d="m 29.199313,256.92766 a 3.3192781,3.2968677 0 0 0 -3.319273,3.29686 3.3192781,3.2968677 0 0 0 3.319273,3.29686 3.3192781,3.2968677 0 0 0 3.319333,-3.29686 3.3192781,3.2968677 0 0 0 -3.319333,-3.29686 z m 0,0.72767 a 2.5866622,2.569198 0 0 1 2.586709,2.56919 2.5866622,2.569198 0 0 1 -2.586709,2.56924 2.5866622,2.569198 0 0 1 -2.586653,-2.56924 2.5866622,2.569198 0 0 1 2.586653,-2.56919 z"
         id="path7224"
         inkscape:connector-curvature="0" />
      <path
         style="fill:#009bff;fill-opacity:1;fill-rule:nonzero;stroke:#000000;stroke-width:0.73164558;stroke-linejoin:miter;stroke-miterlimit:4;stroke-dasharray:none;stroke-opacity:1"
         d="m 31.095445,262.59401 c 0.32542,-0.32323 0.681189,-0.57399 0.681189,-0.57399 l 4.314715,3.60808 c 0.351293,0.29376 0.0019,1.19971 -0.323683,1.52293 -0.32542,0.32322 -1.162401,0.62217 -1.487821,0.29895 -1.509637,-1.49945 -3.702087,-4.37071 -3.702087,-4.37071 0,0 0.192268,-0.16204 0.517687,-0.48526 z"
         id="rect7244"
         inkscape:connector-curvature="0"
         sodipodi:nodetypes="scssscs" />
      <path
         style="fill:#009bff;fill-opacity:1;stroke:#009bff;stroke-width:0.03544275;stroke-linecap:round;stroke-miterlimit:4;stroke-dasharray:none;stroke-opacity:1"
         d="m 28.751452,262.70823 c -1.395805,-0.25886 -2.347463,-1.65826 -2.030791,-2.98625 0.12828,-0.53795 0.288033,-0.84285 0.63939,-1.22033 0.568573,-0.61084 1.452759,-0.90954 2.26051,-0.76365 1.34946,0.24373 2.318862,1.55652 2.093231,2.83471 -0.187631,1.06291 -0.947978,1.873 -1.978117,2.10752 -0.419934,0.0956 -0.593128,0.10053 -0.984223,0.028 z m 2.511661,-2.21162 c 0.163452,-0.32812 -0.174366,-1.15802 -0.669129,-1.64383 -0.357461,-0.35099 -0.812777,-0.5973 -1.274686,-0.68959 -0.286112,-0.0572 -0.352126,-0.0518 -0.481684,0.0394 -0.274113,0.19296 -0.178883,0.3382 0.447137,0.68197 0.702294,0.38566 0.940655,0.59946 1.208378,1.08389 0.116485,0.21077 0.247301,0.44521 0.2907,0.52097 0.105692,0.18451 0.388827,0.18874 0.479284,0.007 v 0 z"
         id="path3275"
         inkscape:connector-curvature="0" />
    </g>
    <g
       id="layer20"
       inkscape:label="lens flare"
       style="display:inline"
       transform="matrix(2.5397123,0,0,2.5397123,-62.648765,370.39129)">
      <path
         style="fill:#000000;fill-opacity:1;stroke:none"
         d="m 31.138521,260.61267 c 0.368382,-0.13586 0.0156,-1.24567 -0.610582,-1.80964 -0.599936,-0.54034 -1.723515,-0.89241 -1.813105,-0.42413 -0.0677,0.35386 0.752654,0.3893 1.381681,0.97996 0.663102,0.62265 0.610231,1.41305 1.042006,1.25381 z"
         id="path7242"
         inkscape:connector-curvature="0"
         sodipodi:nodetypes="sssss" />
    </g>
    <g
       id="layer21"
       inkscape:label="lens flare 2"
       style="display:inline"
       transform="matrix(2.5397123,0,0,2.5397123,-62.648765,370.39129)" />
  </g>
  <g
     sodipodi:insensitive="true"
     style="display:none"
     transform="translate(0,-1020.3622)"
     id="g61"
     inkscape:groupmode="layer"
     inkscape:label="close copy">
    <rect
       inkscape:transform-center-y="0.19092618"
       inkscape:transform-center-x="-0.50327043"
       transform="matrix(0.70038255,0.71376767,-0.61841655,0.78585048,0,0)"
       ry="1.4943568"
       y="719.07202"
       x="643.07629"
       height="2.9887135"
       width="32.118088"
       id="rect57"
       style="opacity:1;fill:#009bff;fill-opacity:1;stroke:#009bff;stroke-width:2.66574097;stroke-linecap:square;stroke-linejoin:round;stroke-miterlimit:4;stroke-dasharray:none;stroke-opacity:1;paint-order:markers fill stroke" />
    <rect
       inkscape:transform-center-y="0.19093952"
       inkscape:transform-center-x="0.50331117"
       transform="matrix(-0.70038255,0.71376767,0.61841655,0.78585048,0,0)"
       ry="1.4943568"
       y="742.40979"
       x="617.64905"
       height="2.9887135"
       width="32.118088"
       id="rect59"
       style="opacity:1;fill:#009bff;fill-opacity:1;stroke:#009bff;stroke-width:2.66574097;stroke-linecap:square;stroke-linejoin:round;stroke-miterlimit:4;stroke-dasharray:none;stroke-opacity:1;paint-order:markers fill stroke" />
  </g>
  <g
     transform="translate(0,-1020.3622)"
     id="g36"
     inkscape:groupmode="layer"
     inkscape:label="edit"
     style="display:none">
    <g
       style="fill:#009bff;fill-opacity:1"
       transform="matrix(0.02311777,0,0,0.02384242,3.9975406,1023.4476)"
       id="g34">
      <path
         style="fill:#009bff;fill-opacity:1"
         inkscape:connector-curvature="0"
         d="M 694.4,201.1 215.1,680.4 c -27.8,27.8 -27.8,72.8 0,100.5 27.7,27.8 72.8,27.8 100.5,0 L 794.9,301.6 Z m -27.5,-27.4 -53.3,-53.3 c -1.5,1.1 -2.9,2.1 -4.3,3.5 L 130,603.1 c -14.9,14.9 -14.9,39.2 0,54.1 14.9,14.9 39.2,14.9 54.1,0 L 663.4,177.9 c 1.4,-1.3 2.4,-2.8 3.5,-4.2 z M 821.3,328 c -1.5,1.1 -2.9,2.1 -4.3,3.5 L 337.8,810.8 c -14.9,14.9 -14.9,39.2 0,54.1 14.9,14.9 39.2,14.9 54.1,0 L 871.2,385.6 c 1.3,-1.3 2.4,-2.8 3.5,-4.2 z"
         id="path28" />
      <path
         style="fill:#009bff;fill-opacity:1"
         inkscape:connector-curvature="0"
         d="M 283.3,850.6 C 130.2,850.6 152.1,719.4 152.1,719.4 86.5,719.4 75.6,675.7 75.6,675.7 L 10,992.7 338,916.2 C 276.8,903 283.3,850.6 283.3,850.6 Z"
         id="path30" />
      <path
         style="fill:#009bff;fill-opacity:1"
         inkscape:connector-curvature="0"
         d="M 959.8,154.1 843.2,37.5 C 803,-2.8 737.7,-2.8 697.5,37.5 L 646.9,88 909.2,350.3 959.7,299.8 c 40.4,-40.2 40.4,-105.5 0.1,-145.7 z"
         id="path32" />
    </g>
  </g>
</svg>
